# xmcd
#
# Track frame offsets:
#	150
#	13396
#	37170
#	47553
#	63611
#	77002
#	91994
#	105249
#	118441
#	132721
#	152342
#	168176
#
# Disc length: 2632 seconds
#
# Revision: 0
# Processed by: cddbd v1.5.2PL0 Copyright (c) Steve Scherf et al.
# Submitted via: EZCDAudioConverter 1.3.4.1
#
DISCID=9e0a460c
DTITLE=Calibro 35 - Ritornano Quelli Di...
DYEAR=2010
DGENRE=
TTITLE0=Eurocrime!
TTITLE1=Death Comes At Midnight
TTITLE2=Five Dolls For An August Moon
TTITLE3=Calling All Units To Broccolino
TTITLE4=Talk Is Cheap
TTITLE5=The Return Of The Band (Part 1)
TTITLE6=The Return Of The Band (Part 2)
TTITLE7=Fair Sex And Merciless Crimes
TTITLE8=Hired To Kill
TTITLE9=Almost Human
TTITLE10=A Fistful Of Lead
TTITLE11=Counselor At Crime
EXTD=
EXTT0=
EXTT1=
EXTT2=
EXTT3=
EXTT4=
EXTT5=
EXTT6=
EXTT7=
EXTT8=
EXTT9=
EXTT10=
EXTT11=
PLAYORDER=
